# xmcd
#
# Track frame offsets: 
#        150
#        17279
#        29347
#        46663
#        64558
#        78809
#        93046
#        107995
#        124389
#        140335
#        158953
#        175111
#
# Disc length: 2564 seconds
#
# Revision: 0
# Processed by: cddbd v1.5.2PL0 Copyright (c) Steve Scherf et al.
# Submitted via: ExactAudioCopy v1.0b3
#
DISCID=880a020c
DTITLE=Craig Campbell - Never Regret
DYEAR=2013
DGENRE=Country
TTITLE0=Truck-N-Roll
TTITLE1=Keep Them Kisses Comin'
TTITLE2=When She Grows Up
TTITLE3=Tomorrow Is Gone
TTITLE4=Never Regret
TTITLE5=My Baby's Daddy
TTITLE6=Topless
TTITLE7=When Ends Don't Meet
TTITLE8=Outta My Head
TTITLE9=That's Why God Made a Front Porch
TTITLE10=You Can Come Over
TTITLE11=Lotta Good That Does Me Now
EXTD=
EXTT0=
EXTT1=
EXTT2=
EXTT3=
EXTT4=
EXTT5=
EXTT6=
EXTT7=
EXTT8=
EXTT9=
EXTT10=
EXTT11=
PLAYORDER=
